<svg xmlns="http://www.w3.org/2000/svg" width="40" height="28.5" viewBox="0 0 40 28.5">
  <g id="그룹_536" data-name="그룹 536" transform="translate(17601 12282.5)">
    <path id="패스_109" data-name="패스 109" d="M0,0V7.548" transform="translate(-17592.16 -12273.71)" fill="none" stroke="#000" stroke-width="1.5" opacity="0"/>
    <path id="패스_108" data-name="패스 108" d="M0,0,11.487,9.414,0,7.548" transform="translate(-17579.582 -12273.71)" fill="none" stroke="#000" stroke-width="1.5" opacity="0"/>
    <g id="사각형_518" data-name="사각형 518" transform="translate(-17587 -12281)" fill="none" stroke="#000" stroke-width="1.5">
      <path d="M6,0H6a6,6,0,0,1,6,6V7a0,0,0,0,1,0,0H0A0,0,0,0,1,0,7V6A6,6,0,0,1,6,0Z" stroke="none"/>
      <path d="M6-.75H6A6.75,6.75,0,0,1,12.75,6V7.75a0,0,0,0,1,0,0H-.75a0,0,0,0,1,0,0V6A6.75,6.75,0,0,1,6-.75Z" fill="none"/>
    </g>
    <g id="사각형_517" data-name="사각형 517" transform="translate(-17601 -12274)" fill="none" stroke="#000" stroke-width="1.5">
      <path d="M0,0H40a0,0,0,0,1,0,0V15a5,5,0,0,1-5,5H5a5,5,0,0,1-5-5V0A0,0,0,0,1,0,0Z" stroke="none"/>
      <path d="M.75.75h38.5a0,0,0,0,1,0,0V15A4.25,4.25,0,0,1,35,19.25H5A4.25,4.25,0,0,1,.75,15V.75A0,0,0,0,1,.75.75Z" fill="none"/>
    </g>
  </g>
</svg>