<svg xmlns="http://www.w3.org/2000/svg" width="36" height="28" viewBox="0 0 36 28"><g id="타원_65" data-name="타원 65" transform="translate(10)" fill="none" stroke="#000" stroke-width="1.5"><circle cx="7.5" cy="7.5" r="7.5" stroke="none"/><circle cx="7.5" cy="7.5" r="6.75" fill="none"/></g><g id="사각형_547" data-name="사각형 547" transform="translate(0 18)" fill="none" stroke="#000" stroke-width="1.5"><path d="M5,0H31a5,5,0,0,1,5,5v5a0,0,0,0,1,0,0H0a0,0,0,0,1,0,0V5A5,5,0,0,1,5,0Z" stroke="none"/><path d="M5,.75H31A4.25,4.25,0,0,1,35.25,5V9.25a0,0,0,0,1,0,0H.75a0,0,0,0,1,0,0V5A4.25,4.25,0,0,1,5,.75Z" fill="none"/></g></svg>